<svg width="229" height="45" viewBox="0 0 229 45" fill="none" xmlns="http://www.w3.org/2000/svg">
<path d="M13.9536 7.76624L31.169 24.912V34.1166H23.1351V28.2209L10.6313 15.7676H8.03388V34.1166H0V7.76624H13.9536ZM23.1351 16.9107V7.76624H31.169V16.9107H23.1351Z" fill="#26035D"/>
<path d="M53.9733 34H40.3341V9.69603H53.2478C58.7978 9.69603 61.5184 11.546 61.5184 15.6813C61.5184 18.7284 59.8861 20.5784 56.5488 20.8686V21.3402C60.6478 21.4853 62.6429 23.9882 62.6429 27.2529C62.6429 31.4971 59.9223 34 53.9733 34ZM47.1537 15.8264V18.946H52.8851C54.2998 18.946 54.6988 18.6196 54.6988 17.3862C54.6988 16.0804 54.1547 15.8264 52.74 15.8264H47.1537ZM47.1537 24.2421V27.8696H53.7194C55.0253 27.8696 55.7145 27.6882 55.7145 26.0921C55.7145 24.4598 55.0978 24.2421 53.7194 24.2421H47.1537ZM73.175 34.3627C67.0083 34.3627 63.4534 30.699 63.4534 24.6774C63.4534 18.6196 67.0083 14.9921 73.175 14.9921C79.3417 14.9921 82.8966 18.6196 82.8966 24.6774C82.8966 30.699 79.3417 34.3627 73.175 34.3627ZM73.175 28.45C75.4603 28.45 76.1133 27.6519 76.1133 24.6774C76.1133 21.7029 75.4603 20.9049 73.175 20.9049C70.8897 20.9049 70.2368 21.7029 70.2368 24.6774C70.2368 27.6519 70.8897 28.45 73.175 28.45ZM91.2874 34H84.504V9.69603H91.2874V34ZM100.255 34.3627C95.5392 34.3627 92.8911 30.5539 92.8911 24.6774C92.8911 18.801 95.4666 14.9921 100.4 14.9921C103.084 14.9921 104.898 16.1166 105.696 17.8215H106.023V9.69603H112.806V34H106.458V31.4608H106.24C105.224 33.202 103.266 34.3627 100.255 34.3627ZM99.6745 24.6774C99.6745 27.1804 100.037 28.4137 102.867 28.4137C105.007 28.4137 106.023 27.9059 106.023 25.3304V23.9882C106.023 21.449 105.007 20.9049 102.867 20.9049C100.001 20.9049 99.6745 22.1745 99.6745 24.6774ZM128.79 34H115.15V9.69603H128.064C133.614 9.69603 136.335 11.546 136.335 15.6813C136.335 18.7284 134.702 20.5784 131.365 20.8686V21.3402C135.464 21.4853 137.459 23.9882 137.459 27.2529C137.459 31.4971 134.739 34 128.79 34ZM121.97 15.8264V18.946H127.701C129.116 18.946 129.515 18.6196 129.515 17.3862C129.515 16.0804 128.971 15.8264 127.556 15.8264H121.97ZM121.97 24.2421V27.8696H128.536C129.842 27.8696 130.531 27.6882 130.531 26.0921C130.531 24.4598 129.914 24.2421 128.536 24.2421H121.97ZM145.77 34H138.987V15.3549H145.335V18.1843H145.661C146.713 16.3706 148.491 14.9921 150.957 14.9921C154.549 14.9921 155.818 17.3137 155.818 20.9774V24.351H148.999V22.501C148.999 21.1225 148.745 20.7235 147.475 20.7235C146.35 20.7235 145.77 20.8686 145.77 22.2108V34ZM163.589 13.6862H156.805V9.69603H163.589V13.6862ZM163.625 34H156.805V15.3549H163.625V34ZM172.521 34.3627C167.805 34.3627 165.157 30.5539 165.157 24.6774C165.157 18.801 167.732 14.9921 172.666 14.9921C175.35 14.9921 177.164 16.1166 177.962 17.8215H178.288V9.69603H185.072V34H178.724V31.4608H178.506C177.49 33.202 175.531 34.3627 172.521 34.3627ZM171.94 24.6774C171.94 27.1804 172.303 28.4137 175.132 28.4137C177.273 28.4137 178.288 27.9059 178.288 25.3304V23.9882C178.288 21.449 177.273 20.9049 175.132 20.9049C172.267 20.9049 171.94 22.1745 171.94 24.6774ZM194.459 31.6784C189.271 31.6784 186.659 28.4863 186.659 23.5166C186.659 18.3294 189.344 14.9921 194.567 14.9921C196.998 14.9921 198.848 15.7539 200.009 17.7127H200.226V15.3549H206.574V31.098C206.574 37.7363 203.31 40.5294 196.889 40.5294C190.94 40.5294 187.53 37.8451 187.53 32.6578H194.35C194.35 34.0725 194.712 34.5078 197.107 34.5078C199.174 34.5078 199.791 34.2176 199.791 32.549V29.6471H199.501C198.848 30.699 197.179 31.6784 194.459 31.6784ZM193.443 23.5166C193.443 25.3304 193.914 26.2735 196.562 26.2735C198.884 26.2735 199.791 25.7657 199.791 23.9157V23.0814C199.791 21.2676 198.92 20.7235 196.671 20.7235C193.987 20.7235 193.443 21.7029 193.443 23.5166ZM217.559 34.3627C211.501 34.3627 208.091 30.8078 208.091 24.8588C208.091 18.6921 211.574 14.9921 217.777 14.9921C223.798 14.9921 226.809 18.5108 226.809 23.4804C226.809 24.4961 226.628 25.6206 226.519 26.2372H214.439C214.548 28.2323 215.165 28.7039 217.668 28.7039C219.3 28.7039 219.844 28.3774 219.844 27.5431V27.4706H226.591V27.9059C226.591 31.6784 223.109 34.3627 217.559 34.3627ZM217.414 20.3608C215.31 20.3608 214.548 21.0137 214.439 22.5372H220.316C220.279 21.3402 219.663 20.3608 217.414 20.3608Z" fill="#26035D"/>
</svg>
